<svg width="24" height="24" viewBox="0 0 24 24" fill="none" xmlns="http://www.w3.org/2000/svg">
<rect x="9.50281" y="2.36716" width="1.75143" height="4.37856" fill="white"/>
<rect x="13.0056" y="2.36716" width="1.75143" height="4.37856" fill="white"/>
<rect x="9.50281" y="17.2543" width="1.75143" height="4.37856" fill="white"/>
<rect x="13.0056" y="17.2543" width="1.75143" height="4.37856" fill="white"/>
<path d="M6 12C6 8.44968 8.92339 5.87002 12.13 5.87002C15.2479 5.87002 17.3809 8.0827 18 10.2486H15.1608C14.7611 9.54338 13.7771 8.49716 12.13 8.49716C10.4829 8.49716 8.62714 9.89624 8.62714 12C8.62714 13.801 10.0639 15.4994 12.13 15.5029C13.8233 15.5057 14.8392 14.3432 15.171 13.7514H18C17.3939 15.8946 15.2155 18.1232 12.13 18.13C9.06499 18.13 6 15.5503 6 12Z" fill="white"/>
</svg>